<svg width="120" height="32" viewBox="0 0 120 32" fill="none" xmlns="http://www.w3.org/2000/svg">
<path fill-rule="evenodd" clip-rule="evenodd" d="M119.568 12.344V7.41996H113.687V1H108V24.4053C108 26.5559 108.541 28.1948 109.608 29.2767C110.674 30.3595 112.336 30.9084 114.547 30.9084H119.568V25.9844H115.894C115.095 25.9844 114.522 25.8087 114.19 25.4618C113.885 25.1443 113.687 24.3423 113.687 23.4188V12.344H119.568Z" fill="white"/>
<path fill-rule="evenodd" clip-rule="evenodd" d="M98.8039 0H104.491V31.7312H98.8039V0ZM60.1717 25.555L66.0521 8.44375H72.027L63.5381 31.7315H56.8054L48.3164 8.44375H54.2913L60.1717 25.555ZM90.11 9.67245C88.3177 8.67873 86.1894 8.17529 83.7851 8.17529C81.4102 8.17529 79.2898 8.67873 77.4827 9.67213C75.6735 10.6681 74.2519 12.0746 73.2573 13.8525C72.2642 15.6288 71.7607 17.7342 71.7607 20.1099C71.7607 22.4565 72.2642 24.5472 73.2573 26.3235C74.2513 28.1008 75.6732 29.507 77.4827 30.5028C79.2898 31.4963 81.4103 31.9997 83.7851 31.9997C86.1893 31.9997 88.3176 31.4963 90.11 30.5025C91.9042 29.5072 93.3182 28.1011 94.3126 26.3235C95.306 24.5462 95.8097 22.4555 95.8097 20.1099C95.8097 17.7351 95.306 15.6297 94.3126 13.8524C93.3176 12.0743 91.9039 10.6677 90.11 9.67245ZM87.1053 26.3115C86.1891 26.9081 85.0721 27.2108 83.7854 27.2108C82.5282 27.2108 81.4184 26.9082 80.4868 26.3113C79.5536 25.7137 78.8218 24.8703 78.3111 23.8041C77.7983 22.7369 77.5379 21.4942 77.5379 20.1099C77.5379 18.6971 77.798 17.4472 78.3111 16.3945C78.8215 15.3427 79.5539 14.499 80.488 13.8864C81.4193 13.2744 82.5288 12.9642 83.7853 12.9642C85.0714 12.9642 86.1878 13.2744 87.1043 13.8857C88.0234 14.4987 88.7486 15.3427 89.2602 16.3948C89.7727 17.45 90.0327 18.7 90.0327 20.11C90.0327 21.4911 89.7727 22.7342 89.2602 23.8041C88.7487 24.8705 88.0238 25.714 87.1053 26.3115ZM5.91055 7.83115H0V31.7315H5.91055V7.83115ZM24.4458 9.19786C24.4458 4.12638 20.316 0.00034332 15.2395 0.00034332H0V5.10442H14.5149C16.8123 5.10442 18.7153 6.9093 18.7574 9.12758C18.7784 10.2383 18.3615 11.2866 17.5836 12.0793C16.8054 12.8722 15.7656 13.3092 14.6558 13.3092H9.00146C8.80072 13.3092 8.63733 13.4723 8.63733 13.6731V18.2094C8.63733 18.2866 8.66116 18.3603 8.70599 18.4224L18.2994 31.7316H25.3219L15.7062 18.386C20.5487 18.1429 24.4458 14.0742 24.4458 9.19786ZM42.6203 9.53693C40.9177 8.63325 38.8961 8.17529 36.6116 8.17529C34.3242 8.17529 32.2791 8.67905 30.5329 9.67309C28.7838 10.6681 27.4078 12.0749 26.4432 13.8537C25.4796 15.6285 24.9912 17.7486 24.9912 20.1554C24.9912 22.5011 25.4871 24.5911 26.4658 26.3677C27.4466 28.1484 28.8613 29.5474 30.6699 30.5257C32.4751 31.5041 34.6405 32 37.1053 32C39.0607 32 40.8167 31.6337 42.3245 30.9106C43.8326 30.1857 45.0638 29.1986 45.9841 27.9765C46.8583 26.815 47.4481 25.5013 47.7366 24.0723L47.7677 23.9198H42.1118L42.0851 24.0114C41.7737 25.0773 41.1695 25.9195 40.2887 26.5152C39.3433 27.1557 38.1821 27.4806 36.8368 27.4806C35.6966 27.4806 34.6668 27.2363 33.7763 26.7545C32.8901 26.2755 32.1972 25.5905 31.7173 24.7178C31.2355 23.8421 30.9613 22.7884 30.9027 21.5924V21.4054H47.9869L48.006 21.301C48.0656 20.9732 48.1039 20.6354 48.1205 20.2957C48.1346 19.9647 48.1428 19.6341 48.1428 19.3004C48.1123 17.0441 47.608 15.0595 46.6441 13.4011C45.6764 11.7408 44.3226 10.4406 42.6203 9.53693ZM40.5479 13.9224C41.5196 14.7402 42.1241 15.9023 42.3458 17.3788H31.0991C31.2276 16.4208 31.5457 15.5911 32.0454 14.9105C32.5696 14.1966 33.2411 13.6357 34.0416 13.2433C34.843 12.8497 35.7229 12.6499 36.6564 12.6499C38.2345 12.6498 39.5438 13.078 40.5479 13.9224Z" fill="white"/>
</svg>
