<svg width="213" height="53" viewBox="0 0 213 53" fill="none" xmlns="http://www.w3.org/2000/svg">
<path d="M169.15 20.0682C169.63 20.0685 170.111 20.0683 170.592 20.0679C171.884 20.0676 173.177 20.0724 174.47 20.0782C175.825 20.0834 177.18 20.0838 178.536 20.0848C181.097 20.0874 183.658 20.0941 186.219 20.1024C189.137 20.1116 192.056 20.1161 194.974 20.1202C200.64 20.1283 206.307 20.1417 211.974 20.1586C212.524 20.1603 212.969 20.6051 212.971 21.1546C212.976 22.576 212.979 23.9973 212.982 25.4186C212.984 26.0152 212.985 26.6119 212.988 27.2085C212.991 28.064 212.993 28.9196 212.994 29.7752C212.995 30.0437 212.997 30.3121 212.998 30.5888C212.998 30.8358 212.998 31.0828 212.998 31.3374C212.999 31.556 212.999 31.7746 213 31.9998C212.983 32.253 212.975 32.3783 212.936 32.4757C212.842 32.7072 212.555 32.7824 212.305 32.7907C211.817 32.8068 211.329 32.8123 210.841 32.8133C210.645 32.8141 210.449 32.8148 210.247 32.8156C209.585 32.8179 208.923 32.8183 208.261 32.8187C207.789 32.82 207.316 32.8214 206.844 32.8229C205.824 32.826 204.804 32.8283 203.784 32.8301C202.171 32.833 200.559 32.8385 198.946 32.8446C194.36 32.8616 189.774 32.8764 185.188 32.8855C182.657 32.8905 180.126 32.8984 177.595 32.9096C176.255 32.9154 174.914 32.9196 173.574 32.9203C172.313 32.9209 171.053 32.9252 169.792 32.9324C169.329 32.9344 168.866 32.935 168.403 32.9341C167.771 32.933 167.139 32.9369 166.507 32.9422C165.977 32.9435 165.977 32.9435 165.436 32.9449C164.503 33.0511 163.996 33.2456 163.283 33.7704C163.192 33.8369 163.115 33.9201 163.055 34.0152C162.362 35.1154 162.169 36.0085 162.311 37.3105C162.32 37.3945 162.341 37.477 162.373 37.5554C162.696 38.3546 163.08 39.0726 163.775 39.6009C163.846 39.6553 163.927 39.6966 164.013 39.7242C164.84 39.9915 165.587 39.9766 166.475 39.9795C166.672 39.9809 166.869 39.9823 167.073 39.9837C167.735 39.9877 168.396 39.9879 169.058 39.9881C169.533 39.9902 170.007 39.9925 170.481 39.9951C171.503 40.0001 172.524 40.0034 173.545 40.0054C175.159 40.0085 176.772 40.0155 178.386 40.023C180.936 40.0344 183.486 40.0433 186.037 40.0511C190.608 40.0651 195.179 40.0821 199.751 40.1019C201.356 40.1088 202.962 40.1141 204.568 40.1182C205.564 40.121 206.56 40.1249 207.556 40.129C208.02 40.1307 208.484 40.1319 208.948 40.1327C209.578 40.1337 210.208 40.1364 210.839 40.1395C211.192 40.1405 211.546 40.1416 211.91 40.1427C212.347 40.1631 212.541 40.1721 212.673 40.2237C212.899 40.3115 212.977 40.5866 212.986 40.8287C212.996 41.0914 212.999 41.3544 212.998 41.6173C212.998 41.8643 212.998 42.1113 212.998 42.3658C212.997 42.6343 212.995 42.9028 212.994 43.1795C212.993 43.5897 212.993 43.5897 212.993 44.0083C212.991 44.8856 212.988 45.763 212.984 46.6403C212.983 47.2336 212.982 47.8268 212.98 48.42C212.978 49.5467 212.975 50.6733 212.971 51.8C212.969 52.3495 212.524 52.7944 211.974 52.796C206.018 52.8138 200.063 52.8272 194.107 52.8356C191.187 52.8399 188.268 52.8456 185.349 52.8551C182.803 52.8633 180.257 52.8686 177.711 52.8704C176.364 52.8715 175.018 52.874 173.671 52.88C172.4 52.8856 171.13 52.8873 169.86 52.886C169.396 52.8863 168.933 52.8879 168.469 52.8911C164.847 52.9147 161.36 52.6864 158.1 50.9249C157.915 50.8278 157.73 50.7308 157.539 50.6308C156.249 49.9368 155.101 49.2284 154.114 48.1314C153.935 47.938 153.757 47.7447 153.574 47.5455C150.718 44.2246 149.23 39.9622 149.365 35.5722C149.692 32.5591 150.527 29.8319 152.198 27.2912C152.335 27.078 152.472 26.8649 152.613 26.6453C155.134 23.0763 158.971 21.1917 163.141 20.3306C165.128 19.9907 167.141 20.0545 169.15 20.0682Z" fill="#FDFDFD"/>
<path d="M149.734 1.14415C149.734 0.591867 150.182 0.144069 150.734 0.144069C170.944 0.144069 191.163 0.144069 211.967 0.144069C212.519 0.144069 212.967 0.591778 212.967 1.14406C212.967 4.55922 212.967 7.98147 212.967 11.4836C212.967 12.0359 212.52 12.4837 211.967 12.4837C191.757 12.4837 171.538 12.4837 150.734 12.4837C150.182 12.4837 149.734 12.036 149.734 11.4837C149.734 8.06851 149.734 4.64626 149.734 1.14415Z" fill="#FEFEFE"/>
<path d="M63.5069 21.1617C63.5069 20.6094 63.9547 20.1616 64.5069 20.1616C68.0054 20.1616 71.5109 20.1616 75.0988 20.1616C75.651 20.1616 76.0988 20.6093 76.0988 21.1616C76.0988 31.2731 76.0988 41.3935 76.0988 51.793C76.0988 52.3453 75.6511 52.793 75.0988 52.793C71.6004 52.793 68.0949 52.793 64.507 52.793C63.9547 52.793 63.5069 52.3453 63.5069 51.793C63.5069 41.6815 63.5069 31.5611 63.5069 21.1617Z" fill="#FBFBFB"/>
<path fill-rule="evenodd" clip-rule="evenodd" d="M13.1394 0.143831H0C0 0.592907 0 0.796834 0.0352031 0.994468C0.0644868 1.15887 0.11813 1.31892 0.216396 1.6121L0.536781 2.41894L0.918248 3.38994C1.24414 4.21375 1.5661 5.03896 1.88542 5.86535C2.17685 6.62012 2.46831 7.37488 2.76032 8.12943L3.07393 8.93921L3.39722 9.77405L4.77298 13.3267L5.13043 14.2497C5.95117 16.3692 6.7713 18.4889 7.59029 20.609C8.67402 23.4147 9.75906 26.2198 10.8472 29.0237L10.8946 29.146C11.2864 30.1555 11.6782 31.165 12.0688 32.1751C12.5401 33.3946 13.012 34.6138 13.4866 35.832C13.6619 36.2812 13.837 36.7304 14.0119 37.1797C14.8543 39.366 15.7102 41.5322 16.7352 43.6404L17.023 44.2225C18.7181 47.6689 21.3485 50.0759 24.8587 51.6445C29.2487 53.3372 33.3846 53.5065 37.7864 51.8009C42.4027 49.6412 45.2996 46.3224 47.1842 41.5814L47.4869 40.7981C47.8362 39.9122 48.1846 39.026 48.53 38.1386C48.7759 37.5064 49.0228 36.8746 49.2706 36.2432C50.5924 32.8815 51.8979 29.5138 53.1825 26.1377L53.5658 25.1294L53.8094 24.49C54.3387 23.1008 54.868 21.7116 55.3904 20.3198C55.6146 19.7221 55.8397 19.1248 56.0659 18.5278L56.3823 17.6935C56.8306 16.4835 57.2566 15.3377 57.9365 14.2442C57.9773 14.1786 58.0265 14.1181 58.0827 14.0652C59.3404 12.8826 60.5526 12.6624 62.2437 12.6463L63.0445 12.6513C63.9524 12.6466 64.8603 12.6432 65.7683 12.6448C66.4341 12.6462 67.1 12.6461 67.7658 12.6445C69.579 12.6386 71.3922 12.6356 73.2053 12.6371C74.5525 12.6383 75.8997 12.6388 77.2469 12.6375L77.8267 12.6369L78.9932 12.6356C82.6394 12.6317 86.2856 12.6322 89.9318 12.6353C93.2779 12.6382 96.6241 12.6363 99.9702 12.6297C103.42 12.6229 106.87 12.6191 110.32 12.6207C112.253 12.6217 114.186 12.6226 116.12 12.618C117.779 12.6138 119.439 12.6121 121.098 12.6156C121.781 12.6175 122.463 12.619 123.146 12.6201C124.096 12.616 125.047 12.6119 125.997 12.6156L126.859 12.6202C128.723 12.6015 130.251 12.6996 131.808 13.7616C131.897 13.822 131.974 13.8985 132.035 13.987C132.863 15.1986 132.859 16.2344 132.762 17.6935L132.489 18.2419C132.375 18.5275 132.318 18.6704 132.249 18.8075C132.181 18.9446 132.101 19.076 131.941 19.3388L131.12 19.613C129.675 20.1261 128.391 20.2295 126.861 20.244L125.942 20.2445C124.914 20.2518 123.886 20.2584 122.858 20.2618C121.937 20.2644 121.016 20.2695 120.095 20.2756C118.352 20.2874 116.609 20.2971 114.866 20.3049C111.713 20.3189 108.559 20.3353 105.406 20.3548L105.313 20.3554C104.418 20.361 103.522 20.3667 102.627 20.3705C101.744 20.3739 100.86 20.3776 99.9768 20.3825L98.9985 20.388L98.0762 20.3902L97.2274 20.3959C93.6151 20.4117 90.1944 22.0709 87.4172 24.3121C84.0539 27.52 82.1863 31.8139 82.0526 36.4599C82.1906 41.0282 83.8363 44.9661 87.0652 48.2018C91.7946 52.7159 97.3178 52.9175 103.536 52.9049C104.465 52.9021 105.395 52.9023 106.324 52.9036C107.888 52.9058 109.452 52.9053 111.015 52.9015C112.825 52.897 114.634 52.8955 116.443 52.9C118.016 52.9039 119.59 52.9059 121.163 52.9044L121.567 52.9038H121.57C122.372 52.9026 123.174 52.9015 123.976 52.9033C124.864 52.9059 125.753 52.9065 126.641 52.9036L127.636 52.8992C128.513 52.9041 129.386 52.8984 130.262 52.8687C134.388 52.5037 138.7 50.7921 141.471 47.5999L142.069 46.7601C143.397 44.9709 144.396 43.1297 145.081 41.0016C146.116 36.596 145.764 32.1347 143.37 28.2507L143.369 28.2502L143.369 28.2492C143.143 27.9245 143.035 27.7695 142.938 27.6081C142.869 27.4943 142.806 27.3773 142.71 27.1953C142.649 27.0776 142.611 26.9483 142.6 26.8158C142.562 26.3537 142.553 26.1309 142.613 25.9294C142.664 25.7604 142.764 25.6063 142.938 25.3382C144.721 22.7156 145.468 19.959 145.622 16.8184C145.741 12.3986 144.074 8.31688 141.058 5.12037C136.481 0.576476 131.008 -0.0222326 124.848 0.00200852C124.171 0.00489105 123.495 0.00572551 122.819 0.00471933C120.969 -0.000422807 119.119 -0.00176799 117.269 0.00271616C115.302 0.0075423 113.336 0.00812636 111.369 0.00717241C107.858 0.0053525 104.348 0.00796655 100.838 0.0146714C97.429 0.0212321 94.0203 0.0247798 90.6116 0.0220571C86.8759 0.0189051 83.1403 0.0174288 79.4046 0.0211837L78.2066 0.0224492L77.6112 0.0230711C76.2362 0.0245314 74.8613 0.0249378 73.4863 0.0238247C71.7965 0.0223825 70.1068 0.022937 68.4169 0.0273311C67.7196 0.0295579 67.0223 0.0314683 66.3249 0.0330341C65.9073 0.0321853 65.4894 0.0290973 65.0717 0.0260102C61.4558 -0.000714025 57.8485 -0.0273738 54.4426 1.39921C51.8095 2.77765 50.1771 3.63221 48.9007 4.85858C46.8186 6.85906 45.6838 9.84888 42.6978 17.7157C42.3705 18.578 42.042 19.4398 41.7125 20.3012L41.3103 21.3521L41.109 21.8783C40.9077 22.4043 40.7066 22.9303 40.5057 23.4565C39.3145 26.5777 38.1098 29.6935 36.8949 32.8055C36.7078 33.2848 36.5207 33.7641 36.3338 34.2435C35.9339 35.2691 35.5339 36.2946 35.1332 37.3198L34.7646 38.2595C34.6439 38.5892 34.5185 38.9174 34.3839 39.2417C34.2803 39.4916 34.0737 39.6836 33.8196 39.7762C33.1066 40.0359 32.6869 40.1756 32.2562 40.236C31.7679 40.3044 31.2653 40.2708 30.3052 40.1945C30.177 40.1843 30.0511 40.1502 29.9383 40.0885C28.5099 39.3063 27.9378 38.1154 27.3587 36.6168L27.0775 35.8558C26.756 35.0151 26.4356 34.1741 26.1195 33.3313C25.8933 32.7278 25.6657 32.1248 25.4368 31.5224C24.9642 30.2837 24.4918 29.045 24.022 27.8053C23.1235 25.4326 22.2096 23.0663 21.2863 20.7031C20.8429 19.5695 20.4002 18.4357 19.9579 17.3017L19.693 16.6223C19.1333 15.1878 18.5744 13.7529 18.0173 12.3174C17.6132 11.2758 17.209 10.2343 16.8045 9.19287C16.6093 8.69016 16.4141 8.18744 16.2189 7.68469L16.2167 7.67902C15.9444 6.97563 15.672 6.27209 15.3988 5.56901L15.1453 4.91685C14.5218 3.30169 13.8427 1.72915 13.1394 0.143831ZM101.324 32.6644L100.351 32.6688C100.192 32.6679 100.035 32.666 99.8798 32.6642C98.6976 32.65 97.5974 32.6367 96.4797 33.0773C96.3823 33.1157 96.2927 33.1723 96.2155 33.2431C95.2459 34.1321 94.8 35.0621 94.5973 36.336C94.5825 36.4294 94.5825 36.5249 94.5972 36.6183C94.7605 37.6623 95.0575 38.4694 95.7384 39.2756C95.7841 39.3297 95.8367 39.3781 95.8942 39.4194C97.2502 40.3927 98.6085 40.5827 100.261 40.6019L101.127 40.5951C102.099 40.6012 103.071 40.6055 104.043 40.6027C104.738 40.6001 105.433 40.5993 106.128 40.6C107.767 40.6032 109.407 40.6038 111.046 40.5982C112.744 40.5922 114.442 40.5902 116.14 40.5962C117.612 40.6014 119.085 40.6037 120.558 40.6021C121.261 40.6007 121.965 40.5996 122.668 40.5989C123.677 40.6026 124.685 40.6058 125.694 40.601L126.623 40.5951C128.59 40.6104 130.201 40.5494 131.851 39.4191C131.911 39.378 131.966 39.3292 132.015 39.2751C132.625 38.5957 132.987 38.0869 133.11 37.1466C133.134 35.9616 133.078 35.0562 132.283 34.1463C130.875 32.8919 129.899 32.6792 128.042 32.6637L127.125 32.6688C126.104 32.6642 125.083 32.661 124.062 32.6631C123.146 32.6655 122.23 32.6657 121.315 32.6644C119.78 32.6622 118.246 32.6627 116.712 32.6665C114.926 32.671 113.141 32.6725 111.356 32.668C109.811 32.6641 108.265 32.6621 106.72 32.6636C105.982 32.6646 105.245 32.6658 104.508 32.666C103.446 32.6632 102.385 32.6608 101.324 32.6644Z" fill="#FDFDFD"/>
</svg>
